HIERARCHY
ROOT Hip
{
	OFFSET	0.0000	0.0000	0.0000
	CHANNELS 6 Xposition Yposition Zposition Xrotation Yrotation Zrotation
	JOINT LowerSpine
	{
		OFFSET	0.0000	9.2663	-5.5158
		CHANNELS 3 Xrotation Yrotation Zrotation
		JOINT MiddleSpine
		{
			OFFSET	0.0000	8.4562	0.3976
			CHANNELS 3 Xrotation Yrotation Zrotation
			JOINT Chest
			{
				OFFSET	0.0000	10.4635	-2.0962
				CHANNELS 3 Xrotation Yrotation Zrotation
				JOINT Neck
				{
					OFFSET	0.0000	23.5793	-0.4413
					CHANNELS 3 Xrotation Yrotation Zrotation
					JOINT Head
					{
						OFFSET	-0.0001	13.3155	3.6218
						CHANNELS 3 Xrotation Yrotation Zrotation
						End Site
						{
							OFFSET	0.0001	18.6051	0.5554
						}
					}
				}
				JOINT LClavicle
				{
					OFFSET	2.1425	22.7552	7.0165
					CHANNELS 3 Xrotation Yrotation Zrotation
					JOINT LShoulder
					{
						OFFSET	12.5166	3.2639	-5.2813
						CHANNELS 3 Xrotation Yrotation Zrotation
						JOINT LForearm
						{
							OFFSET	29.5419	-0.1047	-0.2560
							CHANNELS 3 Xrotation Yrotation Zrotation
							JOINT LHand
							{
								OFFSET	24.6442	0.0715	-0.1476
								CHANNELS 3 Xrotation Yrotation Zrotation
								JOINT LFinger1
								{
									OFFSET	9.5514	0.8353	2.6529
									CHANNELS 3 Xrotation Yrotation Zrotation
									JOINT LFinger11
									{
										OFFSET	3.5727	-0.8712	0.6295
										CHANNELS 3 Xrotation Yrotation Zrotation
										JOINT LFinger12
										{
											OFFSET	2.4390	-0.5949	0.4299
											CHANNELS 3 Xrotation Yrotation Zrotation
											End Site
											{
												OFFSET	1.7356	-0.5181	0.2815
											}
										}
									}
								}
								JOINT LFinger2
								{
									OFFSET	9.6939	0.9646	0.2310
									CHANNELS 3 Xrotation Yrotation Zrotation
									JOINT LFinger21
									{
										OFFSET	4.4174	0.0123	-0.0261
										CHANNELS 3 Xrotation Yrotation Zrotation
										JOINT LFinger22
										{
											OFFSET	2.4486	0.0075	-0.0149
											CHANNELS 3 Xrotation Yrotation Zrotation
											End Site
											{
												OFFSET	2.1993	-0.1553	0.0029
											}
										}
									}
								}
								JOINT LFinger3
								{
									OFFSET	9.1870	0.6438	-2.1735
									CHANNELS 3 Xrotation Yrotation Zrotation
									JOINT LFinger31
									{
										OFFSET	4.0084	-0.2029	-0.2510
										CHANNELS 3 Xrotation Yrotation Zrotation
										JOINT LFinger32
										{
											OFFSET	2.2842	-0.1149	-0.1435
											CHANNELS 3 Xrotation Yrotation Zrotation
											End Site
											{
												OFFSET	2.0196	-0.2483	-0.0955
											}
										}
									}
								}
								JOINT LFinger4
								{
									OFFSET	8.5252	-0.6478	-3.7536
									CHANNELS 3 Xrotation Yrotation Zrotation
									JOINT LFinger41
									{
										OFFSET	2.4655	-0.5142	-0.6806
										CHANNELS 3 Xrotation Yrotation Zrotation
										JOINT LFinger42
										{
											OFFSET	1.8080	-0.3765	-0.4994
											CHANNELS 3 Xrotation Yrotation Zrotation
											End Site
											{
												OFFSET	1.6047	-0.4409	-0.3682
											}
										}
									}
								}
								JOINT LFinger0
								{
									OFFSET	1.9759	-1.4955	1.4979
									CHANNELS 3 Xrotation Yrotation Zrotation
									JOINT LFinger01
									{
										OFFSET	3.6787	-1.2081	2.7735
										CHANNELS 3 Xrotation Yrotation Zrotation
										JOINT LFinger02
										{
											OFFSET	2.4224	-0.8668	1.7452
											CHANNELS 3 Xrotation Yrotation Zrotation
											End Site
											{
												OFFSET	1.7813	-0.6132	1.2198
											}
										}
									}
								}
							}
						}
					}
				}
				JOINT RClavicle
				{
					OFFSET	-2.1425	22.7552	7.0164
					CHANNELS 3 Xrotation Yrotation Zrotation
					JOINT RShoulder
					{
						OFFSET	-12.5188	3.2645	-5.2822
						CHANNELS 3 Xrotation Yrotation Zrotation
						JOINT RForearm
						{
							OFFSET	-29.5419	-0.1047	-0.2560
							CHANNELS 3 Xrotation Yrotation Zrotation
							JOINT RHand
							{
								OFFSET	-24.6442	0.0715	-0.1476
								CHANNELS 3 Xrotation Yrotation Zrotation
								JOINT RFinger1
								{
									OFFSET	-9.5514	0.8354	2.6529
									CHANNELS 3 Xrotation Yrotation Zrotation
									JOINT RFinger11
									{
										OFFSET	-3.5727	-0.8712	0.6295
										CHANNELS 3 Xrotation Yrotation Zrotation
										JOINT RFinger12
										{
											OFFSET	-2.4390	-0.5950	0.4299
											CHANNELS 3 Xrotation Yrotation Zrotation
											End Site
											{
												OFFSET	-1.7356	-0.5181	0.2815
											}
										}
									}
								}
								JOINT RFinger2
								{
									OFFSET	-9.6939	0.9647	0.2310
									CHANNELS 3 Xrotation Yrotation Zrotation
									JOINT RFinger21
									{
										OFFSET	-4.4175	0.0123	-0.0261
										CHANNELS 3 Xrotation Yrotation Zrotation
										JOINT RFinger22
										{
											OFFSET	-2.4486	0.0075	-0.0150
											CHANNELS 3 Xrotation Yrotation Zrotation
											End Site
											{
												OFFSET	-2.1993	-0.1553	0.0029
											}
										}
									}
								}
								JOINT RFinger3
								{
									OFFSET	-9.1870	0.6438	-2.1735
									CHANNELS 3 Xrotation Yrotation Zrotation
									JOINT RFinger31
									{
										OFFSET	-4.0084	-0.2029	-0.2510
										CHANNELS 3 Xrotation Yrotation Zrotation
										JOINT RFinger32
										{
											OFFSET	-2.2842	-0.1149	-0.1435
											CHANNELS 3 Xrotation Yrotation Zrotation
											End Site
											{
												OFFSET	-2.0196	-0.2483	-0.0955
											}
										}
									}
								}
								JOINT RFinger4
								{
									OFFSET	-8.5252	-0.6478	-3.7536
									CHANNELS 3 Xrotation Yrotation Zrotation
									JOINT RFinger41
									{
										OFFSET	-2.4655	-0.5141	-0.6806
										CHANNELS 3 Xrotation Yrotation Zrotation
										JOINT RFinger42
										{
											OFFSET	-1.8080	-0.3764	-0.4994
											CHANNELS 3 Xrotation Yrotation Zrotation
											End Site
											{
												OFFSET	-1.6047	-0.4409	-0.3682
											}
										}
									}
								}
								JOINT RFinger0
								{
									OFFSET	-1.9759	-1.4954	1.4978
									CHANNELS 3 Xrotation Yrotation Zrotation
									JOINT RFinger01
									{
										OFFSET	-3.6787	-1.2083	2.7736
										CHANNELS 3 Xrotation Yrotation Zrotation
										JOINT RFinger02
										{
											OFFSET	-2.4223	-0.8667	1.7452
											CHANNELS 3 Xrotation Yrotation Zrotation
											End Site
											{
												OFFSET	-1.7813	-0.6132	1.2198
											}
										}
									}
								}
							}
						}
					}
				}
			}
		}
	}
	JOINT RThigh
	{
		OFFSET	-10.9561	4.1886	-0.8987
		CHANNELS 3 Xrotation Yrotation Zrotation
		JOINT RShin
		{
			OFFSET	-0.7932	-43.1154	0.0000
			CHANNELS 3 Xrotation Yrotation Zrotation
			JOINT RFoot
			{
				OFFSET	0.0000	-42.3368	0.0000
				CHANNELS 3 Xrotation Yrotation Zrotation
				JOINT RToe
				{
					OFFSET	0.0000	-4.6532	9.7304
					CHANNELS 3 Xrotation Yrotation Zrotation
					End Site
					{
						OFFSET	0.0000	0.0000	6.5278
					}
				}
			}
		}
	}
	JOINT LThigh
	{
		OFFSET	10.9559	4.1889	-0.8988
		CHANNELS 3 Xrotation Yrotation Zrotation
		JOINT LShin
		{
			OFFSET	0.7933	-43.1157	0.0000
			CHANNELS 3 Xrotation Yrotation Zrotation
			JOINT LFoot
			{
				OFFSET	0.0000	-42.3368	0.0000
				CHANNELS 3 Xrotation Yrotation Zrotation
				JOINT LToe
				{
					OFFSET	0.0000	-4.6532	9.7305
					CHANNELS 3 Xrotation Yrotation Zrotation
					End Site
					{
						OFFSET	0.0000	0.0000	6.5278
					}
				}
			}
		}
	}
}
MOTION
Frames:	4
Frame Time: 0.0333333000
	-23.2453	79.3345	-62.9136	7.403975	-5.537301	-1.161238	0.000000	0.000000	0.000000	-0.665530	0.238888	-0.465418	-2.304871	0.784978	-1.502058	1.987700	-0.338030	1.326561	2.413162	-0.081354	6.841004	-0.126900	-0.012540	-14.837470	35.610260	-42.953980	-44.750210	0.038116	-18.037680	0.003225	0.000000	0.000000	0.000000	0.000000	0.000000	0.000000	0.000000	0.000000	0.000000	0.000000	0.000000	0.000000	0.000000	0.000000	0.000000	0.000000	0.000000	0.000000	0.000000	0.000000	0.000000	0.000000	0.000000	0.000000	0.000000	0.000000	0.000000	0.000000	0.000000	0.000000	0.000000	0.000000	0.000000	0.000000	0.000000	0.000000	0.000000	0.000000	0.000000	0.000000	0.000000	0.000000	0.000000	0.000000	0.000000	0.000000	0.000000	0.000000	0.311721	0.757536	15.065770	29.715970	42.711540	51.438580	0.055953	19.326170	-0.002890	0.000000	0.000000	0.000000	0.000000	0.000000	0.000000	0.000000	0.000000	0.000000	0.000000	0.000000	0.000000	0.000000	0.000000	0.000000	0.000000	0.000000	0.000000	0.000000	0.000000	0.000000	0.000000	0.000000	0.000000	0.000000	0.000000	0.000000	0.000000	0.000000	0.000000	0.000000	0.000000	0.000000	0.000000	0.000000	0.000000	0.000000	0.000000	0.000000	0.000000	0.000000	0.000000	0.000000	0.000000	0.000000	0.000000	0.000000	0.000000	-9.826840	0.297841	7.012157	4.941470	0.000000	0.000000	0.469390	0.461254	0.216281	0.000000	0.000000	0.000000	-11.701250	-1.080686	2.114011	10.008140	0.000001	0.000000	-1.196348	0.596425	0.291886	0.000000	0.000000	0.000000
	-23.3614	79.2824	-62.8326	7.463531	-5.330544	-1.477718	0.000000	0.000000	0.000000	-0.596328	0.254552	-0.414549	-2.127934	0.814809	-1.310548	2.444330	-0.521394	2.113838	2.583137	-0.024029	4.588912	-0.187537	-0.018351	-14.940550	31.240030	-39.787220	-47.541920	0.038904	-19.655570	0.004330	0.000000	0.000000	0.000000	0.000000	0.000000	0.000000	0.000000	0.000000	0.000000	0.000000	0.000000	0.000000	0.000000	0.000000	0.000000	0.000000	0.000000	0.000000	0.000000	0.000000	0.000000	0.000000	0.000000	0.000000	0.000000	0.000000	0.000000	0.000000	0.000000	0.000000	0.000000	0.000000	0.000000	0.000000	0.000000	0.000000	0.000000	0.000000	0.000000	0.000000	0.000000	0.000000	0.000000	0.000000	0.000000	0.000000	0.000000	0.000000	0.436541	1.060973	14.985480	32.980040	47.219430	48.620930	0.054196	18.802960	-0.002571	0.000000	0.000000	0.000000	0.000000	0.000000	0.000000	0.000000	0.000000	0.000000	0.000000	0.000000	0.000000	0.000000	0.000000	0.000000	0.000000	0.000000	0.000000	0.000000	0.000000	0.000000	0.000000	0.000000	0.000000	0.000000	0.000000	0.000000	0.000000	0.000000	0.000000	0.000000	0.000000	0.000000	0.000000	0.000000	0.000000	0.000000	0.000000	0.000000	0.000000	0.000000	0.000000	0.000000	0.000000	0.000000	0.000000	0.000000	0.000000	-9.840903	0.093378	7.319077	5.028830	0.000000	0.000000	1.033578	0.617112	0.287418	0.000000	0.000000	0.000000	-11.172700	-2.062615	2.327962	9.090261	0.000001	0.000000	-1.384706	0.607894	0.299086	0.000000	0.000000	0.000000
	-23.4194	79.2739	-62.8089	7.493358	-5.288077	-1.582408	0.000000	0.000000	0.000000	-0.547848	0.264518	-0.404939	-2.008671	0.832130	-1.260564	2.605778	-0.573668	2.336419	2.692708	-0.015829	3.919185	-0.215027	-0.020930	-14.953310	29.904650	-38.852200	-48.306980	0.039954	-20.042570	0.004590	0.000000	0.000000	0.000000	0.000000	0.000000	0.000000	0.000000	0.000000	0.000000	0.000000	0.000000	0.000000	0.000000	0.000000	0.000000	0.000000	0.000000	0.000000	0.000000	0.000000	0.000000	0.000000	0.000000	0.000000	0.000000	0.000000	0.000000	0.000000	0.000000	0.000000	0.000000	0.000000	0.000000	0.000000	0.000000	0.000000	0.000000	0.000000	0.000000	0.000000	0.000000	0.000000	0.000000	0.000000	0.000000	0.000000	0.000000	0.000000	0.483748	1.175347	14.944200	33.925270	49.002430	47.633720	0.051180	18.111700	-0.002236	0.000000	0.000000	0.000000	0.000000	0.000000	0.000000	0.000000	0.000000	0.000000	0.000000	0.000000	0.000000	0.000000	0.000000	0.000000	0.000000	0.000000	0.000000	0.000000	0.000000	0.000000	0.000000	0.000000	0.000000	0.000000	0.000000	0.000000	0.000000	0.000000	0.000000	0.000000	0.000000	0.000000	0.000000	0.000000	0.000000	0.000000	0.000000	0.000000	0.000000	0.000000	0.000000	0.000000	0.000000	0.000000	0.000000	0.000000	0.000000	-9.893409	0.016029	7.419592	5.144990	0.000000	0.000000	1.260127	0.674685	0.313610	0.000000	0.000000	0.000000	-10.890420	-2.432160	2.424985	8.543064	0.000001	0.000000	-1.299354	0.513478	0.252207	0.000000	0.000000	0.000000
	-23.4441	79.2631	-62.7963	7.515071	-5.312867	-1.604042	0.000000	0.000000	0.000000	-0.505033	0.282946	-0.408559	-1.909504	0.878014	-1.253032	2.722697	-0.574366	2.347663	2.656764	-0.017048	3.799711	-0.234316	-0.022701	-14.938270	29.771110	-38.544220	-48.305900	0.042778	-20.789910	0.005145	0.000000	0.000000	0.000000	0.000000	0.000000	0.000000	0.000000	0.000000	0.000000	0.000000	0.000000	0.000000	0.000000	0.000000	0.000000	0.000000	0.000000	0.000000	0.000000	0.000000	0.000000	0.000000	0.000000	0.000000	0.000000	0.000000	0.000000	0.000000	0.000000	0.000000	0.000000	0.000000	0.000000	0.000000	0.000000	0.000000	0.000000	0.000000	0.000000	0.000000	0.000000	0.000000	0.000000	0.000000	0.000000	0.000000	0.000000	0.000000	0.504315	1.225137	14.898790	33.685320	49.418460	47.719270	0.047245	17.649820	-0.002186	0.000000	0.000000	0.000000	0.000000	0.000000	0.000000	0.000000	0.000000	0.000000	0.000000	0.000000	0.000000	0.000000	0.000000	0.000000	0.000000	0.000000	0.000000	0.000000	0.000000	0.000000	0.000000	0.000000	0.000000	0.000000	0.000000	0.000000	0.000000	0.000000	0.000000	0.000000	0.000000	0.000000	0.000000	0.000000	0.000000	0.000000	0.000000	0.000000	0.000000	0.000000	0.000000	0.000000	0.000000	0.000000	0.000000	0.000000	0.000000	-10.017750	0.006298	7.436790	5.376614	0.000001	0.000000	1.215320	0.676953	0.314984	0.000000	0.000000	0.000000	-10.807780	-2.546158	2.447877	8.352592	0.000001	0.000000	-1.340827	0.417440	0.205946	0.000000	0.000000	0.000000
